<?xml version="1.0" standalone="no"?>
<!DOCTYPE svg PUBLIC "-//W3C//DTD SVG 20010904//EN"
 "http://www.w3.org/TR/2001/REC-SVG-20010904/DTD/svg10.dtd">
<svg version="1.0" xmlns="http://www.w3.org/2000/svg"
 width="260.000000pt" height="260.000000pt" viewBox="0 0 260.000000 260.000000"
 preserveAspectRatio="xMidYMid meet">
<metadata>
Created by potrace 1.14, written by Peter Selinger 2001-2017
</metadata>
<g transform="translate(0.000000,260.000000) scale(0.100000,-0.100000)"
fill="#000000" stroke="none">
<path d="M0 1300 l0 -1300 1300 0 1300 0 0 1300 0 1300 -1300 0 -1300 0 0
-1300z m1288 877 l3 -136 37 -6 c164 -24 295 -79 403 -168 150 -124 248 -314
261 -502 l3 -50 145 -2 c97 -1 145 -6 145 -13 0 -7 -48 -12 -145 -13 l-145 -2
-3 -50 c-5 -79 -39 -192 -85 -279 -51 -99 -179 -232 -277 -289 -77 -44 -193
-83 -278 -93 l-62 -7 0 -138 c0 -117 -2 -139 -15 -139 -13 0 -15 22 -15 139
l0 138 -75 6 c-276 24 -529 227 -619 499 -14 42 -29 107 -33 145 l-8 68 -133
0 c-111 0 -132 2 -132 15 0 13 21 15 132 15 l133 0 8 70 c29 271 230 522 486
610 58 19 189 45 232 45 5 0 9 61 9 141 0 108 3 140 13 137 8 -3 13 -43 15
-141z"/>
<path d="M1160 1999 c-278 -41 -510 -251 -580 -525 -11 -43 -20 -97 -20 -121
l0 -44 178 3 177 3 -3 23 c-2 14 2 22 12 22 8 0 16 -10 18 -22 2 -18 10 -23
33 -23 23 0 31 5 33 23 5 31 32 28 32 -4 0 -21 4 -25 23 -22 14 2 23 11 25 26
2 12 10 22 17 22 7 0 15 -10 17 -22 3 -21 8 -23 68 -23 l65 0 0 65 c0 61 -1
65 -22 64 -15 0 -23 5 -23 16 0 11 8 16 23 16 17 -1 22 5 22 24 0 19 -5 25
-22 25 -13 0 -23 4 -23 8 0 4 0 12 0 17 0 6 11 10 25 10 21 0 25 5 25 30 0 25
-4 30 -25 30 -16 0 -25 6 -25 15 0 9 9 15 25 15 l25 0 0 180 0 180 -22 -1
c-13 -1 -48 -5 -78 -10z"/>
<path d="M1290 1830 l0 -180 25 0 c16 0 25 -6 25 -15 0 -9 -9 -15 -25 -15 -21
0 -25 -5 -25 -30 0 -25 4 -30 25 -30 16 0 25 -6 25 -15 0 -9 -10 -15 -26 -15
-22 0 -25 -4 -22 -27 2 -20 9 -28 23 -28 11 0 20 -7 20 -15 0 -8 -9 -15 -20
-15 -18 0 -20 -7 -20 -65 l0 -65 65 0 c60 0 65 2 68 23 5 31 32 28 32 -4 0
-22 4 -25 28 -22 19 2 28 9 30 26 2 12 10 22 17 22 7 0 15 -10 17 -22 2 -15
11 -24 26 -26 18 -3 22 1 22 22 0 32 27 35 32 4 3 -23 5 -23 168 -23 l165 0
-3 50 c-5 75 -39 191 -77 265 -72 136 -176 235 -320 304 -82 39 -124 52 -237
71 l-38 6 0 -181z"/>
<path d="M560 1253 c1 -171 119 -393 272 -508 109 -83 275 -145 387 -145 l41
0 0 175 0 175 -25 0 c-16 0 -25 6 -25 15 0 9 9 15 25 15 20 0 25 5 25 25 0 20
-5 25 -25 25 -16 0 -25 6 -25 15 0 9 10 15 26 15 23 0 25 3 22 33 -2 26 -7 32
-25 31 -15 0 -23 5 -23 16 0 11 8 16 23 16 21 -1 22 3 22 64 l0 65 -65 0 c-63
0 -65 -1 -68 -27 -2 -16 -9 -28 -17 -28 -8 0 -15 12 -17 28 -4 39 -45 44 -50
6 -4 -37 -26 -42 -30 -7 -3 24 -8 28 -33 28 -25 0 -30 -4 -33 -28 -4 -34 -27
-31 -27 4 l0 24 -178 3 -177 3 0 -38z"/>
<path d="M1294 1277 c-3 -8 -4 -39 -2 -68 3 -46 6 -54 23 -54 11 0 20 -7 20
-15 0 -8 -9 -15 -20 -15 -15 0 -21 -8 -23 -32 -3 -30 -1 -33 23 -33 32 0 29
-23 -3 -28 -16 -2 -22 -10 -22 -28 0 -19 5 -24 25 -24 16 0 25 -6 25 -15 0 -9
-9 -15 -25 -15 l-25 0 0 -175 0 -175 33 0 c60 0 186 38 270 82 61 31 103 63
162 123 90 90 133 157 169 262 25 70 48 210 36 218 -3 2 -78 3 -165 2 l-160
-2 -3 -27 c-5 -39 -32 -37 -32 3 0 26 -3 30 -22 27 -17 -2 -24 -11 -26 -30 -2
-16 -9 -28 -17 -28 -8 0 -15 12 -17 28 -2 21 -9 28 -30 30 -22 3 -27 -1 -30
-24 -4 -37 -26 -42 -30 -7 -3 27 -5 28 -66 31 -47 2 -64 -1 -68 -11z"/>
</g>
</svg>
